<svg viewBox="0 0 32 32" xmlns="http://www.w3.org/2000/svg">
  <!-- Optimized for favicon/link icon -->
  
  <!-- Main ticket body - simplified for small size -->
  <path d="M 4 8 
           L 28 8 
           L 28 12
           Q 28 13 27 13
           Q 26 13 26 14
           Q 26 15 27 15
           Q 28 15 28 16
           L 28 24
           L 4 24
           L 4 16
           Q 4 15 5 15
           Q 6 15 6 14
           Q 6 13 5 13
           Q 4 13 4 12
           Z"
        fill="#f97316"/>
  
  <!-- Perforation line -->
  <line x1="16" y1="8" x2="16" y2="24" 
        stroke="#fff" 
        stroke-width="1.5" 
        stroke-dasharray="3,2"
        opacity="0.6"/>
  
  <!-- Corner details for depth -->
  <circle cx="6" cy="10" r="0.8" fill="#fff" opacity="0.4"/>
  <circle cx="26" cy="10" r="0.8" fill="#fff" opacity="0.4"/>
  <circle cx="6" cy="22" r="0.8" fill="#fff" opacity="0.4"/>
  <circle cx="26" cy="22" r="0.8" fill="#fff" opacity="0.4"/>
</svg>